<svg width="28" height="36" viewBox="0 0 28 36" fill="none" xmlns="http://www.w3.org/2000/svg">
<path d="M14.1004 5.97029C13.7248 7.05262 13.4548 8.20525 13.4436 9.28619C13.5698 10.9244 14.271 12.3729 14.9496 13.7745C15.5971 15.1119 16.2667 16.4948 16.3987 18.021C16.5226 19.4542 16.1981 21.5495 13.9486 23.3925L13.2972 23.7991C12.348 24.2341 11.4167 24.4547 10.5291 24.4547C9.02938 24.4547 7.65426 23.8212 6.65709 22.6708C5.60066 21.4522 4.96121 19.6612 4.72183 17.2322C3.76904 18.6724 3.19206 20.3257 3.00036 22.1722C3.00879 25.265 3.9945 27.886 5.85518 29.7583C7.78653 31.7017 10.5905 32.7719 13.7507 32.7719C16.7184 32.7719 19.4691 31.6438 21.496 29.5954C23.461 27.6097 24.5278 24.9366 24.501 22.0669C24.4391 19.05 23.0729 16.6471 18.4225 11.3692C16.6723 9.38286 15.2285 7.52676 14.1004 5.97029ZM13.7507 -0.000244141C13.7507 -0.000244141 16.1378 4.23826 20.6734 9.38593C25.2091 14.5336 27.4178 17.728 27.5007 22.0219C27.583 29.842 21.3446 35.7719 13.7507 35.7719C6.15675 35.7719 -0.0531786 30.6869 0.000652534 22.0219C0.793741 13.551 7.893 10.6763 7.893 10.6763C7.893 10.6763 6.34782 21.4547 10.5291 21.4547C10.9692 21.4547 11.472 21.3356 12.0473 21.0719C15.7665 18.0247 10.8008 15.0042 10.4433 9.38593C10.429 4.76284 13.7507 -0.000244141 13.7507 -0.000244141Z" fill="#FF6C40"/>
<path d="M11.9311 28.522C11.9311 28.522 15.6189 28.991 17.9499 26.882C18.6218 26.3041 19.1697 25.5959 19.56 24.8002C19.9503 24.0046 20.175 23.138 20.2209 22.253" stroke="#FF6C40" stroke-width="3" stroke-linecap="round"/>
</svg>
